<svg width="281" height="48" viewBox="0 0 281 48" fill="none" xmlns="http://www.w3.org/2000/svg">
<path d="M12.696 47.064L0.6 2.2H7.896L16.792 39.32L27.032 2.2H34.52L44.44 39.32L53.336 2.2H60.632L48.344 47H40.408L30.616 11.864L20.504 47L12.696 47.064ZM73.9775 47.768C71.2895 47.768 69.0708 47.32 67.3215 46.424C65.5722 45.528 64.2708 44.3547 63.4175 42.904C62.5642 41.4107 62.1375 39.7893 62.1375 38.04C62.1375 34.968 63.3322 32.536 65.7215 30.744C68.1108 28.952 71.5242 28.056 75.9615 28.056H84.2815V27.48C84.2815 25.0053 83.5988 23.1493 82.2335 21.912C80.9108 20.6747 79.1828 20.056 77.0495 20.056C75.1722 20.056 73.5295 20.5253 72.1215 21.464C70.7562 22.36 69.9242 23.704 69.6255 25.496H62.8415C63.0548 23.192 63.8228 21.2293 65.1455 19.608C66.5108 17.944 68.2175 16.6853 70.2655 15.832C72.3562 14.936 74.6388 14.488 77.1135 14.488C81.5508 14.488 84.9855 15.6613 87.4175 18.008C89.8495 20.312 91.0655 23.4693 91.0655 27.48V47H85.1775L84.6015 41.56C83.7055 43.3093 82.4042 44.7813 80.6975 45.976C78.9908 47.1707 76.7508 47.768 73.9775 47.768ZM75.3215 42.264C77.1562 42.264 78.6922 41.8373 79.9295 40.984C81.2095 40.088 82.1908 38.9147 82.8735 37.464C83.5988 36.0133 84.0468 34.4133 84.2175 32.664H76.6655C73.9775 32.664 72.0575 33.1333 70.9055 34.072C69.7962 35.0107 69.2415 36.184 69.2415 37.592C69.2415 39.0427 69.7748 40.1947 70.8415 41.048C71.9508 41.8587 73.4442 42.264 75.3215 42.264ZM111.663 47C108.548 47 106.073 46.2533 104.239 44.76C102.404 43.224 101.487 40.5147 101.487 36.632V20.952H96.0465V15.256H101.487L102.319 7.192H108.271V15.256H117.231V20.952H108.271V36.632C108.271 38.3813 108.633 39.5973 109.359 40.28C110.127 40.92 111.428 41.24 113.263 41.24H116.911V47H111.663ZM138.453 47.768C135.338 47.768 132.544 47.064 130.069 45.656C127.637 44.248 125.717 42.3067 124.309 39.832C122.944 37.3147 122.261 34.4133 122.261 31.128C122.261 27.8427 122.944 24.9627 124.309 22.488C125.717 19.9707 127.637 18.008 130.069 16.6C132.544 15.192 135.338 14.488 138.453 14.488C142.378 14.488 145.664 15.512 148.309 17.56C150.997 19.608 152.725 22.3813 153.493 25.88H146.389C145.962 24.1307 145.024 22.7653 143.573 21.784C142.122 20.8027 140.416 20.312 138.453 20.312C136.789 20.312 135.253 20.7387 133.845 21.592C132.437 22.4027 131.306 23.6187 130.453 25.24C129.6 26.8187 129.173 28.7813 129.173 31.128C129.173 33.4747 129.6 35.4587 130.453 37.08C131.306 38.6587 132.437 39.8747 133.845 40.728C135.253 41.5813 136.789 42.008 138.453 42.008C140.416 42.008 142.122 41.5173 143.573 40.536C145.024 39.5547 145.962 38.168 146.389 36.376H153.493C152.768 39.7893 151.061 42.5413 148.373 44.632C145.685 46.7227 142.378 47.768 138.453 47.768ZM160.851 47V0.919998H167.635V20.376C168.701 18.5413 170.173 17.112 172.051 16.088C173.971 15.0213 176.083 14.488 178.387 14.488C182.184 14.488 185.171 15.6827 187.347 18.072C189.523 20.4613 190.611 24.024 190.611 28.76V47H183.891V29.464C183.891 23.32 181.437 20.248 176.531 20.248C173.971 20.248 171.837 21.144 170.131 22.936C168.467 24.728 167.635 27.288 167.635 30.616V47H160.851ZM200.201 47V20.952H195.657V15.256H200.201V10.648C200.201 7.192 201.054 4.71733 202.76 3.224C204.51 1.688 206.963 0.919998 210.121 0.919998H213.449V6.68H211.145C209.651 6.68 208.585 7 207.945 7.64C207.305 8.23733 206.985 9.26133 206.985 10.712V15.256H214.281V20.952H206.985V47H200.201ZM220.745 47V0.919998H227.529V47H220.745ZM240.003 9.24C238.723 9.24 237.656 8.856 236.803 8.088C235.992 7.27733 235.587 6.27466 235.587 5.08C235.587 3.88533 235.992 2.904 236.803 2.136C237.656 1.32533 238.723 0.919998 240.003 0.919998C241.283 0.919998 242.328 1.32533 243.139 2.136C243.992 2.904 244.419 3.88533 244.419 5.08C244.419 6.27466 243.992 7.27733 243.139 8.088C242.328 8.856 241.283 9.24 240.003 9.24ZM236.611 47V15.256H243.395V47H236.611ZM249.279 47L260.543 31.128L249.279 15.256H256.51L265.023 27.416L273.471 15.256H280.767L269.503 31.128L280.767 47H273.471L265.023 34.84L256.51 47H249.279Z" fill="white"/>
</svg>
