<svg width="14" height="14" viewBox="0 0 14 14" fill="none" xmlns="http://www.w3.org/2000/svg">
<path d="M7 0.333008C5.68146 0.333008 4.39252 0.724001 3.2962 1.45654C2.19987 2.18909 1.34539 3.23028 0.840801 4.44845C0.336217 5.66663 0.204195 7.00707 0.461429 8.30028C0.718664 9.59348 1.3536 10.7814 2.28595 11.7137C3.2183 12.6461 4.40619 13.281 5.6994 13.5382C6.9926 13.7955 8.33305 13.6635 9.55122 13.1589C10.7694 12.6543 11.8106 11.7998 12.5431 10.7035C13.2757 9.60715 13.6667 8.31822 13.6667 6.99967C13.6647 5.23216 12.9617 3.5376 11.7119 2.28777C10.4621 1.03795 8.76751 0.334949 7 0.333008ZM7 12.333C5.94516 12.333 4.91402 12.0202 4.03696 11.4342C3.15989 10.8481 2.47631 10.0152 2.07264 9.04065C1.66897 8.06611 1.56336 6.99376 1.76914 5.95919C1.97493 4.92463 2.48288 3.97432 3.22876 3.22844C3.97464 2.48256 4.92495 1.97461 5.95952 1.76882C6.99408 1.56303 8.06644 1.66865 9.04098 2.07232C10.0155 2.47598 10.8485 3.15957 11.4345 4.03663C12.0205 4.9137 12.3333 5.94484 12.3333 6.99967C12.3317 8.41368 11.7693 9.76931 10.7695 10.7692C9.76963 11.769 8.414 12.3314 7 12.333Z" fill="#9A9AB0"/>
<path d="M7.66666 3H6.33333V7.276L9.19533 10.138L10.138 9.19533L7.66666 6.724V3Z" fill="#9A9AB0"/>
</svg>
