<svg width="147" height="25" viewBox="0 0 147 25" fill="none" xmlns="http://www.w3.org/2000/svg">
<path d="M6.72 24L0.8 1.6H5.184L9.216 19.424L13.952 1.6H18.464L23.072 19.424L27.104 1.6H31.52L25.44 24H20.576L16.128 7.392L11.552 24H6.72ZM38.052 24.384C36.6867 24.384 35.5667 24.1707 34.692 23.744C33.8173 23.296 33.1667 22.7093 32.74 21.984C32.3133 21.2587 32.1 20.4587 32.1 19.584C32.1 18.112 32.676 16.9173 33.828 16C34.98 15.0827 36.708 14.624 39.012 14.624H43.044V14.24C43.044 13.152 42.7347 12.352 42.116 11.84C41.4973 11.328 40.7293 11.072 39.812 11.072C38.98 11.072 38.2547 11.2747 37.636 11.68C37.0173 12.064 36.6333 12.64 36.484 13.408H32.484C32.5907 12.256 32.9747 11.2533 33.636 10.4C34.3187 9.54667 35.1933 8.896 36.26 8.448C37.3267 7.97867 38.5213 7.744 39.844 7.744C42.1053 7.744 43.8867 8.30933 45.188 9.44C46.4893 10.5707 47.14 12.1707 47.14 14.24V24H43.652L43.268 21.44C42.7987 22.2933 42.1373 22.9973 41.284 23.552C40.452 24.1067 39.3747 24.384 38.052 24.384ZM38.98 21.184C40.1533 21.184 41.06 20.8 41.7 20.032C42.3613 19.264 42.7773 18.3147 42.948 17.184H39.46C38.372 17.184 37.5933 17.3867 37.124 17.792C36.6547 18.176 36.42 18.656 36.42 19.232C36.42 19.8507 36.6547 20.3307 37.124 20.672C37.5933 21.0133 38.212 21.184 38.98 21.184ZM57.902 24C56.238 24 54.9047 23.5947 53.902 22.784C52.8993 21.9733 52.398 20.5333 52.398 18.464V11.552H49.678V8.128H52.398L52.878 3.872H56.494V8.128H60.782V11.552H56.494V18.496C56.494 19.264 56.654 19.7973 56.974 20.096C57.3153 20.3733 57.8913 20.512 58.702 20.512H60.686V24H57.902ZM71.6685 24.384C70.0472 24.384 68.6178 24.032 67.3805 23.328C66.1432 22.624 65.1618 21.6427 64.4365 20.384C63.7325 19.1253 63.3805 17.6853 63.3805 16.064C63.3805 14.4427 63.7325 13.0027 64.4365 11.744C65.1618 10.4853 66.1432 9.504 67.3805 8.8C68.6178 8.096 70.0472 7.744 71.6685 7.744C73.6952 7.744 75.4018 8.27733 76.7885 9.344C78.1752 10.3893 79.0605 11.84 79.4445 13.696H75.1245C74.9112 12.928 74.4845 12.3307 73.8445 11.904C73.2258 11.456 72.4898 11.232 71.6365 11.232C70.5058 11.232 69.5458 11.6587 68.7565 12.512C67.9672 13.3653 67.5725 14.5493 67.5725 16.064C67.5725 17.5787 67.9672 18.7627 68.7565 19.616C69.5458 20.4693 70.5058 20.896 71.6365 20.896C72.4898 20.896 73.2258 20.6827 73.8445 20.256C74.4845 19.8293 74.9112 19.2213 75.1245 18.432H79.4445C79.0605 20.224 78.1752 21.664 76.7885 22.752C75.4018 23.84 73.6952 24.384 71.6685 24.384ZM83.08 24V0.959999H87.176V10.56C87.7093 9.68533 88.424 9.00267 89.32 8.512C90.2373 8 91.2827 7.744 92.456 7.744C94.4187 7.744 95.9333 8.36267 97 9.6C98.088 10.8373 98.632 12.6507 98.632 15.04V24H94.568V15.424C94.568 14.0587 94.2907 13.0133 93.736 12.288C93.2027 11.5627 92.3493 11.2 91.176 11.2C90.024 11.2 89.064 11.6053 88.296 12.416C87.5493 13.2267 87.176 14.3573 87.176 15.808V24H83.08ZM103.285 24V11.552H101.109V8.128H103.285V6.272C103.285 4.352 103.765 2.98667 104.725 2.176C105.706 1.36533 107.029 0.959999 108.693 0.959999H110.453V4.448H109.333C108.629 4.448 108.127 4.58667 107.829 4.864C107.53 5.14133 107.381 5.61067 107.381 6.272V8.128H110.805V11.552H107.381V24H103.285ZM114.037 24V0.959999H118.133V24H114.037ZM124.538 5.664C123.791 5.664 123.173 5.44 122.682 4.992C122.213 4.544 121.978 3.97867 121.978 3.296C121.978 2.61333 122.213 2.05867 122.682 1.632C123.173 1.184 123.791 0.959999 124.538 0.959999C125.285 0.959999 125.893 1.184 126.362 1.632C126.853 2.05867 127.098 2.61333 127.098 3.296C127.098 3.97867 126.853 4.544 126.362 4.992C125.893 5.44 125.285 5.664 124.538 5.664ZM122.49 24V8.128H126.586V24H122.49ZM129.357 24L135.117 16.064L129.357 8.128H133.741L137.773 13.76L141.773 8.128H146.189L140.397 16.064L146.189 24H141.773L137.773 18.368L133.741 24H129.357Z" fill="white"/>
</svg>
